REM DIRINDEX 1\2,1\3,1\4
REM DIRNAME cjc151,folder01,folder02,folder03
TITLE ""
FILE "060 060_TOEFL_3900.mp3" MP3
  TRACK 01 AUDIO
    TITLE "2:cjc151_2587"
    INDEX 01 00:00:00
  TRACK 02 AUDIO
    TITLE "0:"
    INDEX 01 00:01:38
  TRACK 03 AUDIO
    TITLE "3:cjc151_2588"
    INDEX 01 00:03:15
  TRACK 04 AUDIO
    TITLE "0:"
    INDEX 01 00:07:37
  TRACK 05 AUDIO
    TITLE "2:cjc151_2589"
    INDEX 01 00:09:12
  TRACK 06 AUDIO
    TITLE "0:"
    INDEX 01 00:10:19
  TRACK 07 AUDIO
    TITLE "3:cjc151_2590"
    INDEX 01 00:12:01
  TRACK 08 AUDIO
    TITLE "0:"
    INDEX 01 00:16:57
  TRACK 09 AUDIO
    TITLE "2:cjc151_2591"
    INDEX 01 00:18:39
  TRACK 10 AUDIO
    TITLE "0:"
    INDEX 01 00:19:40
  TRACK 11 AUDIO
    TITLE "3:cjc151_2592"
    INDEX 01 00:21:19
  TRACK 12 AUDIO
    TITLE "0:"
    INDEX 01 00:24:51
  TRACK 13 AUDIO
    TITLE "2:cjc151_2593"
    INDEX 01 00:26:30
  TRACK 14 AUDIO
    TITLE "0:"
    INDEX 01 00:27:26
  TRACK 15 AUDIO
    TITLE "3:cjc151_2594"
    INDEX 01 00:29:05
  TRACK 16 AUDIO
    TITLE "0:"
    INDEX 01 00:32:17
  TRACK 17 AUDIO
    TITLE "2:cjc151_2595"
    INDEX 01 00:33:71
  TRACK 18 AUDIO
    TITLE "0:"
    INDEX 01 00:35:08
  TRACK 19 AUDIO
    TITLE "3:cjc151_2596"
    INDEX 01 00:36:72
  TRACK 20 AUDIO
    TITLE "0:"
    INDEX 01 00:40:32
  TRACK 21 AUDIO
    TITLE "2:cjc151_2597"
    INDEX 01 00:42:08
  TRACK 22 AUDIO
    TITLE "0:"
    INDEX 01 00:43:25
  TRACK 23 AUDIO
    TITLE "3:cjc151_2598"
    INDEX 01 00:45:02
  TRACK 24 AUDIO
    TITLE "0:"
    INDEX 01 00:49:37
  TRACK 25 AUDIO
    TITLE "2:cjc151_2599"
    INDEX 01 00:51:16
  TRACK 26 AUDIO
    TITLE "0:"
    INDEX 01 00:52:24
  TRACK 27 AUDIO
    TITLE "3:cjc151_2600"
    INDEX 01 00:54:03
  TRACK 28 AUDIO
    TITLE "0:"
    INDEX 01 00:57:15
  TRACK 29 AUDIO
    TITLE "2:cjc151_2601"
    INDEX 01 00:58:69
  TRACK 30 AUDIO
    TITLE "0:"
    INDEX 01 00:59:71
  TRACK 31 AUDIO
    TITLE "3:cjc151_2602"
    INDEX 01 01:01:42
  TRACK 32 AUDIO
    TITLE "0:"
    INDEX 01 01:05:30
  TRACK 33 AUDIO
    TITLE "2:cjc151_2603"
    INDEX 01 01:07:10
  TRACK 34 AUDIO
    TITLE "0:"
    INDEX 01 01:07:72
  TRACK 35 AUDIO
    TITLE "3:cjc151_2604"
    INDEX 01 01:09:59
  TRACK 36 AUDIO
    TITLE "0:"
    INDEX 01 01:14:49
  TRACK 37 AUDIO
    TITLE "2:cjc151_2605"
    INDEX 01 01:16:26
  TRACK 38 AUDIO
    TITLE "0:"
    INDEX 01 01:17:45
  TRACK 39 AUDIO
    TITLE "3:cjc151_2606"
    INDEX 01 01:19:21
  TRACK 40 AUDIO
    TITLE "0:"
    INDEX 01 01:23:07
  TRACK 41 AUDIO
    TITLE "2:cjc151_2607"
    INDEX 01 01:24:55
  TRACK 42 AUDIO
    TITLE "0:"
    INDEX 01 01:25:74
  TRACK 43 AUDIO
    TITLE "3:cjc151_2608"
    INDEX 01 01:27:50
  TRACK 44 AUDIO
    TITLE "0:"
    INDEX 01 01:31:47
  TRACK 45 AUDIO
    TITLE "2:cjc151_2609"
    INDEX 01 01:33:25
  TRACK 46 AUDIO
    TITLE "0:"
    INDEX 01 01:34:34
  TRACK 47 AUDIO
    TITLE "3:cjc151_2610"
    INDEX 01 01:36:07
  TRACK 48 AUDIO
    TITLE "0:"
    INDEX 01 01:39:74
  TRACK 49 AUDIO
    TITLE "2:cjc151_2611"
    INDEX 01 01:41:52
  TRACK 50 AUDIO
    TITLE "0:"
    INDEX 01 01:42:55
  TRACK 51 AUDIO
    TITLE "3:cjc151_2612"
    INDEX 01 01:44:28
  TRACK 52 AUDIO
    TITLE "0:"
    INDEX 01 01:48:46
  TRACK 53 AUDIO
    TITLE "2:cjc151_2613"
    INDEX 01 01:50:25
  TRACK 54 AUDIO
    TITLE "0:"
    INDEX 01 01:51:56
  TRACK 55 AUDIO
    TITLE "3:cjc151_2614"
    INDEX 01 01:53:35
  TRACK 56 AUDIO
    TITLE "0:"
    INDEX 01 01:57:37
  TRACK 57 AUDIO
    TITLE "2:cjc151_2615"
    INDEX 01 01:59:14
  TRACK 58 AUDIO
    TITLE "0:"
    INDEX 01 02:00:16
  TRACK 59 AUDIO
    TITLE "3:cjc151_2616"
    INDEX 01 02:01:70
  TRACK 60 AUDIO
    TITLE "0:"
    INDEX 01 02:05:58
  TRACK 61 AUDIO
    TITLE "2:cjc151_2617"
    INDEX 01 02:07:35
  TRACK 62 AUDIO
    TITLE "0:"
    INDEX 01 02:08:43
  TRACK 63 AUDIO
    TITLE "3:cjc151_2618"
    INDEX 01 02:10:20
  TRACK 64 AUDIO
    TITLE "0:"
    INDEX 01 02:13:61
  TRACK 65 AUDIO
    TITLE "2:cjc151_2619"
    INDEX 01 02:15:39
  TRACK 66 AUDIO
    TITLE "0:"
    INDEX 01 02:16:38
  TRACK 67 AUDIO
    TITLE "3:cjc151_2620"
    INDEX 01 02:18:12
  TRACK 68 AUDIO
    TITLE "0:"
    INDEX 01 02:22:06
  TRACK 69 AUDIO
    TITLE "2:cjc151_2621"
    INDEX 01 02:23:60
  TRACK 70 AUDIO
    TITLE "0:"
    INDEX 01 02:25:04
  TRACK 71 AUDIO
    TITLE "3:cjc151_2622"
    INDEX 01 02:26:54
  TRACK 72 AUDIO
    TITLE "0:"
    INDEX 01 02:30:38
  TRACK 73 AUDIO
    TITLE "2:cjc151_2623"
    INDEX 01 02:32:16
  TRACK 74 AUDIO
    TITLE "0:"
    INDEX 01 02:33:15
  TRACK 75 AUDIO
    TITLE "3:cjc151_2624"
    INDEX 01 02:34:69
  TRACK 76 AUDIO
    TITLE "0:"
    INDEX 01 02:38:40
  TRACK 77 AUDIO
    TITLE "2:cjc151_2625"
    INDEX 01 02:40:19
  TRACK 78 AUDIO
    TITLE "0:"
    INDEX 01 02:41:32
  TRACK 79 AUDIO
    TITLE "3:cjc151_2626"
    INDEX 01 02:43:10
  TRACK 80 AUDIO
    TITLE "0:"
    INDEX 01 02:46:55
  TRACK 81 AUDIO
    TITLE "2:cjc151_2627"
    INDEX 01 02:48:32
  TRACK 82 AUDIO
    TITLE "0:"
    INDEX 01 02:49:28
  TRACK 83 AUDIO
    TITLE "3:cjc151_2628"
    INDEX 01 02:51:07
  TRACK 84 AUDIO
    TITLE "0:"
    INDEX 01 02:54:47
  TRACK 85 AUDIO
    TITLE "2:cjc151_2629"
    INDEX 01 02:56:24
  TRACK 86 AUDIO
    TITLE "0:"
    INDEX 01 02:57:18
  TRACK 87 AUDIO
    TITLE "3:cjc151_2630"
    INDEX 01 02:58:70
  TRACK 88 AUDIO
    TITLE "0:"
    INDEX 01 03:03:30
